<svg width="358" height="286" viewBox="0 0 358 286" fill="none" xmlns="http://www.w3.org/2000/svg">
<path d="M339.669 209.275C338.559 211.287 336.482 212.762 333.446 213.683C330.407 214.604 326.451 214.956 321.671 214.75C312.112 214.337 299.369 211.701 284.318 207.094C254.225 197.884 215.015 180.83 173.826 158.111C132.638 135.392 97.2965 111.323 73.4532 90.7831C61.5284 80.5102 52.5004 71.1375 47.0525 63.2723C44.328 59.3389 42.5154 55.8058 41.6738 52.7439C40.8329 49.6844 40.9722 47.1407 42.0824 45.128C43.1926 43.1152 45.2698 41.6405 48.3063 40.7197C51.3451 39.7982 55.3004 39.4467 60.0808 39.6529C69.6396 40.0652 82.3833 42.7016 97.4337 47.3081C127.526 56.5185 166.737 73.5726 207.925 96.2917C249.114 119.011 284.455 143.079 308.299 163.619C320.223 173.892 329.251 183.265 334.699 191.13C337.424 195.064 339.236 198.597 340.078 201.659C340.919 204.718 340.78 207.262 339.669 209.275Z" stroke="black"/>
<path d="M327.492 231.35C326.381 233.363 324.304 234.838 321.268 235.758C318.229 236.68 314.274 237.032 309.493 236.825C299.935 236.413 287.191 233.777 272.14 229.17C242.048 219.96 202.837 202.906 161.649 180.187C120.46 157.467 85.1188 133.399 61.2755 112.859C49.3506 102.586 40.3226 93.2132 34.8748 85.348C32.1503 81.4146 30.3377 77.8815 29.4961 74.8196C28.6551 71.7601 28.7944 69.2164 29.9047 67.2037C31.0149 65.1909 33.0921 63.7162 36.1285 62.7954C39.1674 61.8739 43.1226 61.5223 47.9031 61.7286C57.4618 62.1409 70.2055 64.7773 85.2559 69.3837C115.349 78.5942 154.559 95.6483 195.748 118.367C236.936 141.086 272.278 165.155 296.121 185.695C308.046 195.968 317.074 205.341 322.522 213.206C325.246 217.139 327.059 220.672 327.9 223.734C328.741 226.794 328.602 229.337 327.492 231.35Z" stroke="black"/>
<path d="M315.316 253.426C314.206 255.439 312.128 256.913 309.092 257.834C306.053 258.756 302.098 259.107 297.318 258.901C287.759 258.489 275.015 255.852 259.965 251.246C229.872 242.035 190.661 224.981 149.473 202.262C108.285 179.543 72.943 155.475 49.0997 134.934C37.1748 124.662 28.1469 115.289 22.699 107.424C19.9745 103.49 18.1619 99.9572 17.3203 96.8953C16.4793 93.8358 16.6187 91.2921 17.7289 89.2793C18.8391 87.2666 20.9163 85.7918 23.9527 84.8711C26.9916 83.9496 30.9469 83.598 35.7273 83.8043C45.2861 84.2166 58.0298 86.853 73.0801 91.4594C103.173 100.67 142.384 117.724 183.572 140.443C224.76 163.162 260.102 187.231 283.945 207.771C295.87 218.044 304.898 227.416 310.346 235.282C313.07 239.215 314.883 242.748 315.724 245.81C316.565 248.869 316.426 251.413 315.316 253.426Z" stroke="black"/>
<ellipse cx="79.1188" cy="37.9403" rx="9.71642" ry="9.25373" fill="#B9FF66"/>
<circle cx="253.089" cy="236.433" r="6.01493" fill="#B9FF66"/>
<circle cx="49.0447" cy="13.8806" r="13.8806" fill="black"/>
</svg>
