<svg width="500" height="294" viewBox="0 0 500 294" fill="none" xmlns="http://www.w3.org/2000/svg">
<path d="M497.117 283.333C495.218 286.777 491.679 289.268 486.584 290.813C481.486 292.359 474.874 292.943 466.913 292.6C450.992 291.913 429.791 287.524 404.776 279.868C354.756 264.558 289.594 236.216 221.155 198.465C152.715 160.715 93.9821 120.717 54.3495 86.5752C34.53 69.5014 19.5079 53.9094 10.4343 40.8096C5.89689 34.2589 2.86353 28.3547 1.45168 23.2182C0.0405086 18.0842 0.260162 13.7625 2.15975 10.3186C4.05933 6.87482 7.59763 4.38363 12.693 2.83852C17.7907 1.29268 24.4028 0.708867 32.3641 1.05231C48.2846 1.7391 69.4863 6.12785 94.5006 13.7839C144.521 29.0937 209.683 57.436 278.122 95.1866C346.562 132.937 405.295 172.934 444.928 207.077C464.747 224.15 479.769 239.742 488.843 252.842C493.38 259.393 496.414 265.297 497.825 270.434C499.237 275.568 499.017 279.889 497.117 283.333Z" stroke="black"/>
</svg>
